<svg width="194" height="33" viewBox="0 0 194 33" fill="none" xmlns="http://www.w3.org/2000/svg">
<g clip-path="url(#clip0_3487_425)">
<mask id="mask0_3487_425" style="mask-type:alpha" maskUnits="userSpaceOnUse" x="0" y="0" width="81" height="33">
<path d="M40.489 32.392C62.8505 32.392 80.978 25.1408 80.978 16.196C80.978 7.25119 62.8505 0 40.489 0C18.1275 0 0 7.25119 0 16.196C0 25.1408 18.1275 32.392 40.489 32.392Z" fill="#D9D9D9"/>
</mask>
<g mask="url(#mask0_3487_425)">
<path d="M25.355 16.857C33.777 17.077 40.49 23.967 40.49 32.391H0V16.195L25.355 16.857ZM80.979 32.39L40.49 32.391C40.49 23.967 47.203 17.075 55.624 16.856L80.979 16.194V32.39ZM40.49 -0.000976562C40.49 8.42302 33.777 15.315 25.355 15.534L0.001 16.195V2.34375e-05H40.491L40.49 -0.000976562ZM80.98 16.195L55.624 15.535C47.202 15.315 40.49 8.42302 40.49 -0.000976562H80.98V16.195Z" fill="#EBFF00"/>
</g>
<path d="M185.107 10.1397H187.891L193.998 22.2517H191.316L189.915 19.4347H183.065L181.648 22.2517H178.999L185.107 10.1377V10.1397ZM186.49 12.5857L184.111 17.3257H188.852L186.49 12.5857ZM178.064 10.1397V22.2527H175.583V10.1397H178.064ZM163.576 10.1397L167.372 14.3227L171.185 10.1387H174.222L168.89 15.9427L174.694 22.2527H171.573L167.338 17.5797L163.053 22.2527H160.016L165.803 15.9597L160.472 10.1397H163.576Z" fill="#EBFF00"/>
<path d="M151.4 10.1401H154.184L160.292 22.2531H157.609L156.209 19.4361H149.359L147.942 22.2531H145.293L151.4 10.1391V10.1401ZM152.784 12.5861L150.405 17.3261H155.146L152.784 12.5861ZM134.047 22.2531V10.1401H136.527V20.1111H145.047V22.2541L134.047 22.2531ZM121.627 22.2531V10.1401H124.108V20.1111H132.628V22.2541L121.627 22.2531ZM111.773 10.1401H114.557L120.664 22.2531H117.982L116.581 19.4361H109.732L108.314 22.2531H105.666L111.773 10.1391V10.1401ZM113.156 12.5861L110.778 17.3261H115.518L113.156 12.5861ZM98.3372 9.9541C101.508 9.9541 103.887 11.3711 104.815 13.6991L102.639 14.7451C101.947 13.0921 100.462 12.1301 98.3193 12.1301C95.5873 12.1301 93.5793 13.7331 93.5793 16.1961C93.5793 18.6421 95.5533 20.2791 98.2523 20.2791C100.496 20.2791 102.521 19.2161 102.689 17.7141H97.2393V15.6221H105.001V22.2521H102.672V20.8361C101.981 21.7131 100.26 22.4381 98.2353 22.4381C94.0353 22.4381 91.0312 19.7901 91.0312 16.1621C91.0312 12.5691 94.1012 9.9541 98.3372 9.9541Z" fill="#EBFF00"/>
</g>
<defs>
<clipPath id="clip0_3487_425">
<rect width="194" height="33" fill="white"/>
</clipPath>
</defs>
</svg>
