<svg width="156" height="53" viewBox="0 0 156 53" fill="none" xmlns="http://www.w3.org/2000/svg">
<g clip-path="url(#clip0_3487_395)">
<path d="M41.9486 32.2777L17.4258 15.1689L12.0327 45.6445C11.7328 47.3379 13.555 48.6103 15.0509 47.7495L41.9486 32.2758V32.2777Z" fill="url(#paint0_linear_3487_395)"/>
<path d="M16.0718 43.0982C17.3526 43.9909 19.1032 44.7126 20.2633 44.754L23.9059 42.6584C22.991 42.6922 20.5821 41.8013 18.1675 40.1155C15.753 38.4315 14.0892 36.4806 13.8082 35.6123L13.0781 39.7396C13.5139 40.8127 14.7928 42.2035 16.0718 43.0982Z" fill="url(#paint1_linear_3487_395)"/>
<path d="M24.0724 31.716C20.7071 29.3685 16.9533 25.6378 15.9799 23.3486L14.8047 29.9925C15.8837 31.7442 18.2737 34.3228 20.9354 36.1797C23.5971 38.0366 26.8491 39.3917 28.8676 39.8033L34.7323 36.4297C32.2404 36.3019 27.4377 34.0634 24.0724 31.716Z" fill="url(#paint2_linear_3487_395)"/>
<path d="M15.0472 47.7512L41.9448 32.2776L39.3473 30.4658L14.0078 48.0256C14.3511 48.0294 14.7076 47.9448 15.0472 47.7512Z" fill="url(#paint3_linear_3487_395)"/>
<path d="M42.527 31.7049C44.3555 29.103 40.2949 23.1268 33.4575 18.3567C26.62 13.5866 19.5949 11.8289 17.7664 14.4307C15.9378 17.0326 19.9984 23.0087 26.8358 27.7789C33.6733 32.549 40.6984 34.3067 42.527 31.7049Z" fill="url(#paint4_linear_3487_395)"/>
<path d="M41.7428 30.6404C43.2833 28.4483 39.4508 23.1263 33.1825 18.7533C26.9143 14.3803 20.5841 12.6123 19.0436 14.8043C17.5031 16.9963 21.3356 22.3183 27.6039 26.6913C33.8721 31.0643 40.2023 32.8324 41.7428 30.6404Z" fill="url(#paint5_linear_3487_395)"/>
<path d="M29.8654 0.0263672C29.0599 0.0432824 28.4299 0.71801 28.4676 1.51866C28.8128 8.73768 27.3641 16.4641 24.0781 23.9181C24.6553 24.4331 25.2702 24.9461 25.9191 25.4517C31.5499 14.0716 31.5047 3.93565 31.3255 1.40401C31.2651 0.560135 30.6464 0.0113315 29.8635 0.0282467H29.8654V0.0263672Z" fill="url(#paint6_linear_3487_395)"/>
<path d="M20.752 6.79587C20.0842 7.03832 19.7333 7.77319 19.9748 8.43852C21.2896 12.081 21.5933 16.2665 20.8576 20.5423C21.4103 21.2452 22.0592 21.9707 22.793 22.7018C24.5813 16.0767 23.5042 10.5661 22.4233 7.58149C22.1781 6.903 21.4329 6.54778 20.7539 6.79399L20.752 6.79587Z" fill="url(#paint7_linear_3487_395)"/>
<path d="M36.3616 14.5317C36.7124 13.763 36.3408 12.8571 35.5485 12.5545C34.7959 12.2669 33.9508 12.6372 33.6565 13.3852C31.9814 17.6365 29.7329 21.9706 26.9297 26.2107C27.1523 26.3723 27.3768 26.5339 27.6051 26.6918C27.9559 26.9361 28.3049 27.1711 28.6558 27.4004C31.772 23.2392 34.3714 18.8939 36.3634 14.5335H36.3616V14.5317Z" fill="url(#paint8_linear_3487_395)"/>
<path d="M49.5184 21.3792C49.5524 20.7045 49.0242 20.15 48.347 20.1106C43.782 19.8418 35.8347 21.7231 30.0625 28.275C30.6774 28.6396 31.2886 28.976 31.8885 29.2842C36.495 24.642 42.5332 22.2419 48.2583 22.5257C48.9223 22.5576 49.4845 22.0427 49.5184 21.3811V21.3792Z" fill="url(#paint9_linear_3487_395)"/>
<path d="M46.4993 29.4342C46.7163 28.7538 46.3201 28.0246 45.626 27.8479C41.6174 26.8217 37.0921 27.5792 33.125 29.8872C34.0512 30.3119 34.9416 30.6596 35.7791 30.9284C38.8615 29.6785 42.1079 29.4455 44.9431 30.2536C45.6014 30.4416 46.29 30.0845 46.4975 29.4342H46.4993Z" fill="url(#paint10_linear_3487_395)"/>
<path d="M46.0513 11.4609L41.9453 11.8188L42.3045 15.9098L46.4106 15.5519L46.0513 11.4609Z" fill="url(#paint11_linear_3487_395)"/>
<path d="M45.6385 32.7178L45.2578 34.8686L47.4165 35.2478L47.7971 33.097L45.6385 32.7178Z" fill="url(#paint12_linear_3487_395)"/>
<path d="M35.6477 8.02502C35.7301 7.51915 35.3853 7.04249 34.8776 6.96037C34.3698 6.87826 33.8914 7.22178 33.809 7.72766C33.7266 8.23354 34.0714 8.7102 34.5791 8.79231C35.0868 8.87443 35.5652 8.5309 35.6477 8.02502Z" fill="url(#paint13_linear_3487_395)"/>
<path d="M14.0127 11.0904C14.7274 11.0904 15.3068 10.5131 15.3068 9.80104C15.3068 9.08897 14.7274 8.51172 14.0127 8.51172C13.298 8.51172 12.7188 9.08897 12.7188 9.80104C12.7188 10.5131 13.298 11.0904 14.0127 11.0904Z" fill="url(#paint14_linear_3487_395)"/>
<path d="M22.0124 0.670898L20.8438 2.68758L22.8679 3.85191L24.0365 1.83523L22.0124 0.670898Z" fill="#32FFB4"/>
<path d="M40.8506 3.68457L40.3594 5.51088L42.1924 6.00024L42.6836 4.17393L40.8506 3.68457Z" fill="#32FFB4"/>
<path d="M51.3054 29.3266C52.117 29.3266 52.7749 28.6711 52.7749 27.8625C52.7749 27.0539 52.117 26.3984 51.3054 26.3984C50.4938 26.3984 49.8359 27.0539 49.8359 27.8625C49.8359 28.6711 50.4938 29.3266 51.3054 29.3266Z" fill="#32FFB4"/>
<path d="M76.5546 17.9209C77.9241 18.5355 78.9823 19.4132 79.7255 20.5541C80.4688 21.6949 80.8423 23.0368 80.8423 24.578C80.8423 26.1192 80.4706 27.4555 79.7255 28.5869C78.9804 29.7183 77.9241 30.5904 76.5546 31.205C75.1832 31.8196 73.5684 32.1259 71.7085 32.1259H68.1263V37.4805H62.3125V17H71.7104C73.5703 17 75.1851 17.3064 76.5564 17.9209H76.5546ZM74.057 26.7864C74.6644 26.2695 74.9681 25.5328 74.9681 24.578C74.9681 23.6232 74.6644 22.8808 74.057 22.3546C73.4496 21.8283 72.5498 21.5652 71.3557 21.5652H68.1263V27.5626H71.3557C72.5498 27.5626 73.4496 27.3051 74.057 26.7864Z" fill="#00CF91"/>
<path d="M96.9585 33.5017H88.2662L86.6514 37.4805H80.7188L89.7923 17H95.5191L104.623 37.4805H98.5732L96.9585 33.5017ZM95.2551 29.2297L92.6124 22.676L89.9696 29.2297H95.2551Z" fill="#00CF91"/>
<path d="M116.43 32.0396H113.259V37.4825H107.445V17.002H116.843C118.703 17.002 120.318 17.3084 121.689 17.9229C123.059 18.5375 124.117 19.4152 124.86 20.5561C125.604 21.6969 125.977 23.0388 125.977 24.58C125.977 26.1212 125.63 27.356 124.934 28.4573C124.24 29.5587 123.246 30.4233 121.953 31.0473L126.388 37.4844H120.163L116.434 32.0415H116.43V32.0396ZM119.19 22.3547C118.582 21.8285 117.683 21.5654 116.489 21.5654H113.259V27.5627H116.489C117.683 27.5627 118.582 27.3052 119.19 26.7865C119.797 26.2697 120.101 25.5329 120.101 24.5781C120.101 23.6234 119.797 22.881 119.19 22.3547Z" fill="#00CF91"/>
<path d="M134.431 21.5934H128.117V17H146.53V21.5934H140.245V37.4805H134.431V21.5934Z" fill="#00CF91"/>
<path d="M150.188 17H156.001V37.4805H150.188V17Z" fill="#00CF91"/>
</g>
<defs>
<linearGradient id="paint0_linear_3487_395" x1="28.3064" y1="41.9344" x2="10.5059" y2="7.62777" gradientUnits="userSpaceOnUse">
<stop stop-color="#00CF91"/>
<stop offset="1" stop-color="#32FFB4"/>
</linearGradient>
<linearGradient id="paint1_linear_3487_395" x1="20.3576" y1="45.5114" x2="15.5227" y2="34.2518" gradientUnits="userSpaceOnUse">
<stop stop-color="#1E2C91"/>
<stop offset="1" stop-color="#5868E9"/>
</linearGradient>
<linearGradient id="paint2_linear_3487_395" x1="28.5657" y1="41.9854" x2="23.7308" y2="30.7276" gradientUnits="userSpaceOnUse">
<stop stop-color="#1E2C91"/>
<stop offset="1" stop-color="#5868E9"/>
</linearGradient>
<linearGradient id="paint3_linear_3487_395" x1="22.6794" y1="83.6321" x2="29.2473" y2="29.338" gradientUnits="userSpaceOnUse">
<stop stop-color="#0B073F"/>
<stop offset="1" stop-color="#0B073F" stop-opacity="0"/>
</linearGradient>
<linearGradient id="paint4_linear_3487_395" x1="35.9107" y1="50.4698" x2="29.5326" y2="19.9228" gradientUnits="userSpaceOnUse">
<stop stop-color="#00CF91"/>
<stop offset="1" stop-color="#32FFB4"/>
</linearGradient>
<linearGradient id="paint5_linear_3487_395" x1="24.2067" y1="-23.2014" x2="31.6774" y2="32.6466" gradientUnits="userSpaceOnUse">
<stop stop-color="#0B073F"/>
<stop offset="1" stop-color="#0B073F" stop-opacity="0"/>
</linearGradient>
<linearGradient id="paint6_linear_3487_395" x1="24.6226" y1="23.4061" x2="29.8938" y2="5.48009" gradientUnits="userSpaceOnUse">
<stop stop-color="#1E2C91" stop-opacity="0"/>
<stop offset="1" stop-color="#5868E9"/>
</linearGradient>
<linearGradient id="paint7_linear_3487_395" x1="22.7647" y1="20.6043" x2="21.0904" y2="8.15122" gradientUnits="userSpaceOnUse">
<stop stop-color="#32FFB4" stop-opacity="0"/>
<stop offset="1" stop-color="#32FFB4"/>
</linearGradient>
<linearGradient id="paint8_linear_3487_395" x1="29.4216" y1="24.7371" x2="35.3107" y2="13.345" gradientUnits="userSpaceOnUse">
<stop stop-color="#32FFB4" stop-opacity="0"/>
<stop offset="1" stop-color="#32FFB4"/>
</linearGradient>
<linearGradient id="paint9_linear_3487_395" x1="32.3261" y1="26.5139" x2="46.6304" y2="22.0033" gradientUnits="userSpaceOnUse">
<stop stop-color="#32FFB4" stop-opacity="0"/>
<stop offset="1" stop-color="#32FFB4"/>
</linearGradient>
<linearGradient id="paint10_linear_3487_395" x1="33.5231" y1="32.0824" x2="43.5044" y2="28.3748" gradientUnits="userSpaceOnUse">
<stop stop-color="#1E2C91" stop-opacity="0"/>
<stop offset="1" stop-color="#5868E9"/>
</linearGradient>
<linearGradient id="paint11_linear_3487_395" x1="47.4477" y1="40.3073" x2="42.7293" y2="1.60096" gradientUnits="userSpaceOnUse">
<stop stop-color="#1E2C91"/>
<stop offset="1" stop-color="#5868E9"/>
</linearGradient>
<linearGradient id="paint12_linear_3487_395" x1="47.252" y1="39.8955" x2="42.5325" y2="1.19058" gradientUnits="userSpaceOnUse">
<stop stop-color="#1E2C91"/>
<stop offset="1" stop-color="#5868E9"/>
</linearGradient>
<linearGradient id="paint13_linear_3487_395" x1="38.9032" y1="41.8494" x2="34.1873" y2="3.16375" gradientUnits="userSpaceOnUse">
<stop stop-color="#1E2C91"/>
<stop offset="1" stop-color="#5868E9"/>
</linearGradient>
<linearGradient id="paint14_linear_3487_395" x1="18.3188" y1="44.8561" x2="13.6003" y2="6.14964" gradientUnits="userSpaceOnUse">
<stop stop-color="#1E2C91"/>
<stop offset="1" stop-color="#5868E9"/>
</linearGradient>
<clipPath id="clip0_3487_395">
<rect width="156" height="53" fill="white"/>
</clipPath>
</defs>
</svg>
