<svg display="block" role="presentation" viewBox="0 0 821 120" xmlns="http://www.w3.org/2000/svg"><path d="M 24.107 114.703 C 17.432 111.674 12.133 107.498 7.886 101.891 C 3.639 96.283 1.06 89.758 0 82.182 L 20.318 82.182 C 21.228 89.007 24.107 94.156 28.963 97.794 C 33.819 101.432 39.877 103.251 47.153 103.251 C 53.069 103.251 58.218 102.492 62.465 100.973 C 66.712 99.455 70.042 97.335 72.32 94.607 C 74.597 91.878 75.657 88.691 75.657 85.211 C 75.657 81.731 74.748 78.844 72.929 76.717 C 71.11 74.597 68.531 72.928 65.043 71.71 C 61.556 70.5 56.707 69.132 50.341 67.772 L 34.879 64.434 C 25.024 62.315 17.289 58.676 11.682 53.52 C 6.075 48.363 3.346 41.546 3.346 33.051 C 3.346 26.835 5.315 21.228 9.104 16.221 C 12.892 11.215 18.049 7.276 24.566 4.397 C 31.083 1.519 38.359 0 46.394 0 C 55.039 0 62.615 1.368 69.132 4.097 C 75.649 6.825 80.806 10.614 84.753 15.47 C 88.691 20.318 91.357 26.954 92.416 33.328 L 72.098 33.328 C 70.429 27.721 67.313 22.596 62.916 20.025 C 58.519 17.455 53.061 16.087 46.545 16.087 C 42.147 16.087 38.208 16.696 34.57 17.906 C 30.932 19.116 28.053 20.935 25.926 23.213 C 23.798 25.491 22.739 28.219 22.739 31.248 C 22.739 34.435 23.498 37.006 25.016 38.983 C 26.535 40.952 28.955 42.621 32.293 43.989 C 35.63 45.358 40.328 46.718 46.394 48.086 L 61.706 51.424 C 69.441 53.093 75.657 55.212 80.505 57.941 C 85.354 60.669 88.992 64.007 91.42 68.096 C 93.848 72.193 95.058 77.191 95.058 83.107 C 95.058 90.233 93.089 96.449 89.142 101.907 C 85.203 107.364 79.588 111.461 72.312 114.339 C 65.036 117.218 56.541 118.737 46.995 118.737 C 38.659 118.737 30.924 117.827 24.257 114.798 L 24.099 114.727 Z" fill="rgb(255, 255, 255)" height="118.737px" id="c17_x0iH2" transform="translate(156.328 0)" width="95.05799999999999px"/><path d="M 60.021 37.599 C 64.118 40.328 67.297 44.116 69.425 48.972 C 71.544 53.82 72.612 59.285 72.612 65.494 L 72.612 118.713 L 53.662 118.713 L 53.662 69.14 C 53.662 61.563 52.144 55.948 49.115 52.31 C 46.086 48.672 41.838 46.852 36.231 46.852 C 30.624 46.852 26.527 48.672 23.498 52.46 C 20.469 56.248 18.95 61.864 18.95 69.44 L 18.95 118.713 L 0 118.713 L 0 0 L 18.8 0 L 18.8 51.851 C 20.919 46.394 24.107 41.996 28.354 38.509 C 32.601 35.021 38.058 33.352 44.575 33.352 C 50.641 33.352 55.798 34.72 59.887 37.449 L 60.037 37.599 Z" fill="rgb(255, 255, 255)" height="118.71306945px" id="E06bNON_J" transform="translate(262.782 0.008)" width="72.61200000000002px"/><path d="M 19.259 80.055 C 13.042 76.416 8.344 71.41 5.007 64.893 C 1.669 58.376 0 50.941 0 42.605 C 0 34.269 1.669 26.835 5.007 20.468 C 8.344 14.102 13.193 9.095 19.409 5.457 C 25.625 1.819 32.902 0 41.238 0 C 49.574 0 56.85 1.819 63.066 5.457 C 69.283 9.095 74.131 14.102 77.468 20.468 C 80.806 26.835 82.475 34.261 82.475 42.605 C 82.475 50.949 80.806 58.376 77.468 64.893 C 74.131 71.41 69.283 76.416 63.066 80.055 C 56.85 83.693 49.574 85.512 41.238 85.512 C 32.902 85.512 25.625 83.693 19.409 80.055 Z M 52.611 68.832 C 55.948 66.403 58.368 63.074 60.037 58.676 C 61.706 54.279 62.615 48.972 62.615 42.906 C 62.615 36.84 61.856 31.841 60.187 27.444 C 58.519 23.047 56.091 19.709 52.761 17.289 C 49.423 14.861 45.485 13.651 40.787 13.651 C 36.089 13.651 32.3 14.861 28.963 17.289 C 25.625 19.717 23.205 23.047 21.536 27.444 C 19.868 31.841 18.958 36.998 18.958 42.906 C 18.958 48.814 19.868 53.97 21.536 58.368 C 23.205 62.765 25.784 66.103 29.113 68.523 C 32.451 70.951 36.389 72.161 40.937 72.161 C 45.485 72.161 49.582 70.951 52.911 68.523 L 52.611 68.824 Z" fill="rgb(255, 255, 255)" height="85.5116px" id="GD1ollEH5" transform="translate(344.932 33.209)" width="82.47499999999997px"/><path d="M 54.429 103.101 L 42.906 103.101 C 37.749 103.101 33.201 102.191 29.112 100.523 C 25.016 98.854 21.836 96.276 19.558 92.788 C 17.281 89.3 16.071 84.902 16.071 79.746 L 16.071 31.652 L 0 31.652 L 0 17.7 L 16.071 17.7 L 16.071 0 L 35.02 0 L 35.02 17.7 L 54.429 17.7 L 54.429 31.652 L 35.02 31.652 L 35.02 78.836 C 35.02 82.624 35.93 85.203 37.749 86.722 C 39.568 88.24 42.297 88.999 46.085 88.999 L 54.421 88.999 L 54.421 103.101 Z" fill="rgb(255, 255, 255)" height="103.1008px" id="LYDwh3X1u" transform="translate(427.716 15.62)" width="54.428999999999974px"/><path d="M 64.442 38.809 C 69.599 42.447 73.688 47.454 76.574 53.971 C 79.453 60.487 80.972 67.764 80.972 75.957 C 80.972 84.151 79.453 91.419 76.574 97.944 C 73.696 104.461 69.599 109.467 64.442 113.106 C 59.286 116.744 53.378 118.563 46.853 118.563 C 42.756 118.563 38.967 117.803 35.329 116.135 C 31.691 114.466 28.504 112.196 25.625 109.309 C 22.746 106.423 20.468 103.093 18.8 99.305 L 18.8 118.713 L 0 118.713 L 0 0 L 18.8 0 L 18.8 54.279 C 20.168 50.491 22.137 47.003 24.716 43.815 C 27.294 40.628 30.473 38.058 34.27 36.081 C 38.066 34.103 42.305 33.202 47.003 33.202 C 53.52 33.202 59.436 35.021 64.592 38.659 Z M 51.551 102.183 C 54.888 99.755 57.308 96.426 58.977 92.028 C 60.646 87.631 61.555 82.324 61.555 76.258 C 61.555 70.192 60.796 65.193 59.127 60.796 C 57.459 56.399 55.031 53.061 51.701 50.641 C 48.363 48.213 44.425 47.003 39.727 47.003 C 35.029 47.003 31.24 48.213 27.903 50.641 C 24.565 53.069 22.145 56.399 20.476 60.796 C 18.808 65.193 17.898 70.35 17.898 76.258 C 17.898 82.166 18.808 87.322 20.476 91.72 C 22.145 96.117 24.723 99.455 28.053 101.875 C 31.391 104.303 35.329 105.513 39.877 105.513 C 44.425 105.513 48.521 104.303 51.851 101.875 L 51.551 102.175 Z" fill="rgb(255, 255, 255)" height="118.71306945px" id="JUZ6BUalE" transform="translate(491.089 0.008)" width="80.97200000000004px"/><path d="M 58.526 4.563 C 63.833 7.442 67.772 11.231 70.35 15.936 C 72.929 20.634 74.139 25.941 74.139 31.707 L 74.139 85.527 L 55.339 85.527 L 55.339 67.637 C 53.52 71.576 51.4 74.763 49.123 77.341 C 46.845 79.919 43.966 81.889 40.478 83.407 C 36.99 84.926 32.743 85.685 27.745 85.685 C 22.746 85.685 17.89 84.475 13.643 82.197 C 9.396 79.919 6.066 76.74 3.638 72.643 C 1.21 68.546 0 63.999 0 59.001 C 0 53.085 1.669 48.387 5.007 44.899 C 8.344 41.411 12.433 38.983 17.289 37.473 C 22.137 35.954 27.753 34.894 33.969 34.285 L 55.648 32.007 L 55.648 30.639 C 55.648 27.452 55.039 24.573 53.828 21.995 C 52.618 19.416 50.799 17.297 48.221 15.778 C 45.643 14.26 42.614 13.5 38.975 13.5 C 34.127 13.5 30.331 14.711 27.452 17.139 C 24.573 19.567 22.905 22.596 22.296 26.234 L 3.196 26.234 C 3.805 20.927 5.774 16.229 8.953 12.282 C 12.141 8.344 16.38 5.307 21.536 3.187 C 26.693 1.068 32.601 0 39.126 0 C 47.161 0 53.828 1.368 59.135 4.247 L 58.526 4.548 Z M 45.793 70.365 C 48.822 68.246 51.1 65.359 52.618 61.721 C 54.137 58.083 54.896 53.836 54.896 49.138 L 54.896 44.29 L 40.193 45.809 C 35.646 46.267 32.008 46.868 29.129 47.628 C 26.25 48.387 23.822 49.597 21.853 51.416 C 19.883 53.235 18.824 55.813 18.824 59.151 C 18.824 62.18 19.583 64.758 20.943 66.886 C 22.311 69.005 24.281 70.674 26.701 71.892 C 29.129 73.102 31.858 73.711 34.736 73.711 C 39.134 73.711 42.922 72.651 45.959 70.524 L 45.809 70.373 Z" fill="rgb(255, 255, 255)" height="85.68520000000001px" id="PGILI3vds" transform="translate(578.72 33.194)" width="74.13900000000001px"/><path d="M 18.799 82.466 C 13.643 80.497 9.403 77.618 6.066 73.672 C 2.728 69.733 0.759 64.877 0 59.27 L 19.1 59.27 C 20.009 63.817 22.129 67.004 25.316 68.974 C 28.503 70.943 32.292 71.853 36.689 71.853 C 42.297 71.853 46.694 70.943 49.731 69.124 C 52.76 67.305 54.279 64.727 54.279 61.547 C 54.279 59.428 53.828 57.609 52.91 56.24 C 52.001 54.872 50.332 53.662 48.062 52.602 C 45.792 51.542 42.755 50.633 38.817 49.874 L 25.933 46.995 C 18.198 45.326 12.29 42.598 8.193 38.959 C 4.097 35.321 2.127 30.465 2.127 24.557 C 2.127 19.709 3.646 15.462 6.675 11.674 C 9.704 7.885 13.801 5.006 18.957 3.029 C 24.114 1.052 29.872 0 36.088 0 C 42.305 0 47.461 0.91 52.309 2.578 C 57.158 4.247 61.254 6.825 64.592 10.155 C 67.929 13.485 70.199 17.582 71.259 22.588 L 52.159 22.588 C 51.099 19.709 49.13 17.431 46.093 15.763 C 43.064 14.094 39.726 13.184 35.938 13.184 C 31.541 13.184 27.902 14.094 24.873 15.913 C 21.844 17.732 20.326 20.01 20.326 22.889 C 20.326 24.708 20.935 26.226 21.994 27.436 C 23.054 28.646 24.573 29.556 26.692 30.315 C 28.812 31.074 31.699 31.833 35.337 32.593 L 48.22 35.321 C 56.707 37.14 62.923 40.019 66.87 43.966 C 70.808 47.904 72.786 53.061 72.786 59.578 C 72.786 64.885 71.267 69.432 68.238 73.371 C 65.209 77.31 60.962 80.196 55.505 82.166 C 50.047 84.135 43.831 85.195 36.855 85.195 C 30.338 85.195 24.589 84.673 19.432 82.696 L 18.807 82.466 Z" fill="rgb(255, 255, 255)" height="85.1951px" id="Nsu82QfVo" transform="translate(661.812 33.526)" width="72.78599999999994px"/><path d="M 19.029 48.83 C 19.789 56.565 22.137 62.172 25.926 66.261 C 29.714 70.358 34.57 72.327 40.478 72.327 C 45.485 72.327 49.423 71.267 52.302 69.14 C 55.181 67.02 57.459 63.833 58.969 59.736 L 78.228 59.736 C 75.649 68.381 71.102 74.898 64.585 79.295 C 58.068 83.692 49.882 85.812 40.178 85.812 C 31.992 85.812 24.866 83.993 18.8 80.355 C 12.734 76.717 8.036 71.71 4.849 65.193 C 1.661 58.676 0 51.242 0 42.906 C 0 34.57 1.669 27.136 5.007 20.619 C 8.344 14.102 13.042 9.095 19.108 5.457 C 25.175 1.819 32.3 0 40.336 0 C 48.371 0 55.347 1.669 61.413 5.157 C 67.479 8.645 72.177 13.493 75.515 19.859 C 78.852 26.226 80.521 33.652 80.521 41.996 C 80.521 43.966 80.371 46.694 80.062 48.822 L 19.037 48.822 Z M 26.234 19.116 C 22.596 22.754 20.318 28.211 19.259 35.337 L 60.496 35.337 C 60.195 30.94 59.127 27.151 57.308 23.964 C 55.489 20.777 53.061 18.206 50.032 16.387 C 47.003 14.568 43.666 13.659 39.877 13.659 C 34.27 13.659 29.722 15.478 26.084 19.116 Z" fill="rgb(255, 255, 255)" height="85.81200000000001px" id="y8UoB7uDj" transform="translate(740.189 33.352)" width="80.52100000000007px"/><path d="M 89.434 0 C 105.6 0 118.713 13.105 118.713 29.279 L 118.713 50.435 L 37.544 21.315 C 27.254 17.629 17.376 27.697 21.267 37.915 L 52.033 118.705 L 29.279 118.705 C 13.113 118.705 0 105.6 0 89.426 L 0 29.279 C 0 13.113 13.113 0 29.279 0 Z M 118.713 89.434 C 118.713 105.6 105.608 118.713 89.434 118.713 L 74.035 118.713 C 74.099 118.207 74.13 117.685 74.13 117.139 C 74.13 93.476 92.914 74.075 116.57 73.324 L 117.859 73.284 C 118.151 73.276 118.436 73.253 118.713 73.229 Z" fill="rgb(255, 255, 255)" height="118.71302843017578px" id="hz9MEvMdD" transform="translate(0 0.008)" width="118.713px"/></svg>
